<svg version="1.1" xmlns="http://www.w3.org/2000/svg" viewBox="0 0 1380.7103308967794 781.9025474837604" width="2761.420661793559" height="1563.8050949675207">
  <!-- svg-source:excalidraw -->
  
  <defs>
    <style class="style-fonts">
      @font-face {
        font-family: "Virgil";
        src: url("https://excalidraw.com/Virgil.woff2");
      }
      @font-face {
        font-family: "Cascadia";
        src: url("https://excalidraw.com/Cascadia.woff2");
      }
    </style>
  </defs>
  <rect x="0" y="0" width="1380.7103308967794" height="781.9025474837604" fill="#ffffff"></rect><g stroke-linecap="round" transform="translate(10 343.92760088936666) rotate(0 129.16629125310624 35.714181913301275)"><path d="M17.86 0 M17.86 0 C96.31 0.29, 176.18 0.51, 240.48 0 M17.86 0 C79.91 -0.86, 142.39 -0.75, 240.48 0 M240.48 0 C252.84 0.75, 258.71 5.34, 258.33 17.86 M240.48 0 C251.95 0.96, 259.75 6.52, 258.33 17.86 M258.33 17.86 C259.11 32.34, 258.62 45.25, 258.33 53.57 M258.33 17.86 C258.27 28.97, 257.93 39.92, 258.33 53.57 M258.33 53.57 C259.49 65.89, 253.28 70.62, 240.48 71.43 M258.33 53.57 C258.79 65.46, 252.63 71.49, 240.48 71.43 M240.48 71.43 C154.27 73.92, 69.72 71.56, 17.86 71.43 M240.48 71.43 C184.58 69.91, 127.95 69.57, 17.86 71.43 M17.86 71.43 C5.67 70.5, 0.11 64.34, 0 53.57 M17.86 71.43 C6.2 73.14, 2.14 63.54, 0 53.57 M0 53.57 C0.74 46.57, 0.1 35.47, 0 17.86 M0 53.57 C-0.2 39.35, 0.76 24.37, 0 17.86 M0 17.86 C1.09 6.44, 5.77 1.71, 17.86 0 M0 17.86 C-1.19 4.75, 7.53 2.23, 17.86 0" stroke="#000000" stroke-width="2" fill="none"></path></g><g transform="translate(91.58816625310624 367.64178280266793) rotate(0 47.578125 12)"><text x="47.578125" y="0" font-family="Cascadia, Segoe UI Emoji" font-size="20px" fill="#000000" text-anchor="middle" style="white-space: pre;" direction="ltr" dominant-baseline="text-before-edge">WEB客户端</text></g><g stroke-linecap="round"><g transform="translate(275.4754188888726 381.57004756836693) rotate(0 44.66298051022375 0.35845703918133154)"><path d="M-0.64 -0.75 C14.17 -0.38, 74.6 0.94, 89.97 1.2 M1.22 1.48 C15.73 1.56, 73.73 -0.86, 88.75 -0.76" stroke="#000000" stroke-width="2" fill="none"></path></g><g transform="translate(275.4754188888726 381.57004756836693) rotate(0 44.66298051022375 0.35845703918133154)"><path d="M59.53 9.21 C72.38 7.77, 82.73 1.22, 90.67 -0.83 M61.52 9.13 C68 7.75, 74.02 5.79, 88.24 -1.28" stroke="#000000" stroke-width="2" fill="none"></path></g><g transform="translate(275.4754188888726 381.57004756836693) rotate(0 44.66298051022375 0.35845703918133154)"><path d="M59.12 -11.31 C71.96 -4.69, 82.47 -3.18, 90.67 -0.83 M61.11 -11.38 C67.64 -7.88, 73.76 -4.97, 88.24 -1.28" stroke="#000000" stroke-width="2" fill="none"></path></g></g><mask></mask><g stroke-linecap="round" transform="translate(373.09418278522935 340.3561826980367) rotate(0 142.8567276532051 36.30941827852297)"><path d="M18.15 0 M18.15 0 C105.85 -0.23, 194.49 0.45, 267.56 0 M18.15 0 C116.91 -0.66, 217.24 -0.82, 267.56 0 M267.56 0 C281.04 0.54, 287.53 6.66, 285.71 18.15 M267.56 0 C277.6 -1.04, 284.7 7.53, 285.71 18.15 M285.71 18.15 C287.07 27.37, 287.61 40.87, 285.71 54.46 M285.71 18.15 C286.03 27.77, 286.05 36.7, 285.71 54.46 M285.71 54.46 C286.2 67.97, 281.35 73.96, 267.56 72.62 M285.71 54.46 C284.3 68.34, 278.41 71.86, 267.56 72.62 M267.56 72.62 C182.31 74.11, 95.5 75, 18.15 72.62 M267.56 72.62 C183.95 70.61, 98.31 71.12, 18.15 72.62 M18.15 72.62 C7.15 71.99, 1.18 67.72, 0 54.46 M18.15 72.62 C4.82 72.71, 0.46 67.98, 0 54.46 M0 54.46 C-2.04 45.24, 0.81 31.03, 0 18.15 M0 54.46 C-0.05 43.38, 0.75 32.92, 0 18.15 M0 18.15 C-1.6 6.49, 7.81 1.39, 18.15 0 M0 18.15 C1.39 6.75, 8.22 -1.49, 18.15 0" stroke="#000000" stroke-width="2" fill="none"></path></g><g transform="translate(451.49778543843445 364.6656009765597) rotate(0 64.453125 12)"><text x="64.453125" y="0" font-family="Cascadia, Segoe UI Emoji" font-size="20px" fill="#000000" text-anchor="middle" style="white-space: pre;" direction="ltr" dominant-baseline="text-before-edge">portal-main</text></g><g stroke-linecap="round" transform="translate(846.902329501693 339.7609463328147) rotate(0 142.8567276532051 36.30941827852297)"><path d="M18.15 0 M18.15 0 C96.85 -1.98, 172.58 -1.97, 267.56 0 M18.15 0 C108.66 -1.43, 199.5 -0.91, 267.56 0 M267.56 0 C281.15 0.03, 284.33 4.56, 285.71 18.15 M267.56 0 C278.4 0.29, 284.55 7.99, 285.71 18.15 M285.71 18.15 C284.13 34.05, 284.48 46.52, 285.71 54.46 M285.71 18.15 C285.27 30.57, 285.15 44.87, 285.71 54.46 M285.71 54.46 C284.1 66.81, 281.06 73, 267.56 72.62 M285.71 54.46 C284.44 67.71, 281.11 72.75, 267.56 72.62 M267.56 72.62 C185.93 72.24, 104.8 71.89, 18.15 72.62 M267.56 72.62 C181.24 73.14, 95.47 72.96, 18.15 72.62 M18.15 72.62 C5.03 73.91, -1.97 66.87, 0 54.46 M18.15 72.62 C7.33 72.46, 0.18 66.41, 0 54.46 M0 54.46 C1.21 42.88, -1.9 32.98, 0 18.15 M0 54.46 C0.77 44.93, -0.15 36.67, 0 18.15 M0 18.15 C1.67 5.47, 8.01 -0.22, 18.15 0 M0 18.15 C-0.73 4.22, 4.98 1.46, 18.15 0" stroke="#000000" stroke-width="2" fill="none"></path></g><g transform="translate(913.5871821548981 364.0703646113377) rotate(0 76.171875 12)"><text x="76.171875" y="0" font-family="Cascadia, Segoe UI Emoji" font-size="20px" fill="#000000" text-anchor="middle" style="white-space: pre;" direction="ltr" dominant-baseline="text-before-edge">registry-main</text></g><g mask="url(#mask-Iaga4qf2qNFMDr-_Frkfv)" stroke-linecap="round"><g transform="translate(663.2016633348401 376.53785175835736) rotate(0 90.9985070020964 -0.10444269466941591)"><path d="M-0.57 0.29 C29.96 0.16, 152.13 -0.67, 182.57 -0.69 M1.33 -0.61 C31.76 -0.59, 151.67 0.13, 181.61 0.48" stroke="#c92a2a" stroke-width="2" fill="none"></path></g><g transform="translate(663.2016633348401 376.53785175835736) rotate(0 90.9985070020964 -0.10444269466941591)"><path d="M153.82 10.49 C159.22 7.29, 167.62 5.34, 181.3 1.32 M153.17 11.1 C162.15 6.95, 170.67 5.42, 181.64 -0.16" stroke="#c92a2a" stroke-width="2" fill="none"></path></g><g transform="translate(663.2016633348401 376.53785175835736) rotate(0 90.9985070020964 -0.10444269466941591)"><path d="M153.99 -10.03 C159.35 -8.13, 167.72 -4.98, 181.3 1.32 M153.35 -9.42 C162.29 -7.29, 170.75 -2.53, 181.64 -0.16" stroke="#c92a2a" stroke-width="2" fill="none"></path></g></g><mask id="mask-Iaga4qf2qNFMDr-_Frkfv"><rect x="0" y="0" fill="#fff" width="945.7771198976791" height="476.5425621919642"></rect><rect x="734.4893916162598" y="364.535496541554" fill="#000" width="40" height="24" opacity="1"></rect></mask><g transform="translate(734.4893916162596 364.5354965415539) rotate(0 19.7107787206769 11.897912522134021)"><text x="20" y="0" font-family="Cascadia, Segoe UI Emoji" font-size="20px" fill="#c92a2a" text-anchor="middle" style="white-space: pre;" direction="ltr" dominant-baseline="text-before-edge">注册</text></g><g stroke-linecap="round" transform="translate(1061.1874209814996 10) rotate(0 142.8567276532051 36.30941827852297)"><path d="M18.15 0 M18.15 0 C87.28 2.38, 159.38 0.49, 267.56 0 M18.15 0 C100.34 -0.35, 183.54 -0.19, 267.56 0 M267.56 0 C280.86 0.18, 284.82 6.8, 285.71 18.15 M267.56 0 C278.49 0.75, 284.35 4.57, 285.71 18.15 M285.71 18.15 C285.26 26.79, 287.01 38.86, 285.71 54.46 M285.71 18.15 C285.59 27.82, 285.93 39, 285.71 54.46 M285.71 54.46 C283.8 67.77, 281.63 73.92, 267.56 72.62 M285.71 54.46 C287.53 67.44, 277.56 70.87, 267.56 72.62 M267.56 72.62 C203.09 72.21, 140.99 72.91, 18.15 72.62 M267.56 72.62 C196.18 73.26, 125.86 74.69, 18.15 72.62 M18.15 72.62 C8.02 70.7, -0.55 65.76, 0 54.46 M18.15 72.62 C7.39 70.36, -0.67 68.73, 0 54.46 M0 54.46 C0.17 42.44, 1.96 31.81, 0 18.15 M0 54.46 C-0.36 42.35, 0.34 31.95, 0 18.15 M0 18.15 C-0.92 4.52, 4.4 1.85, 18.15 0 M0 18.15 C-1.85 4.29, 4.04 0.21, 18.15 0" stroke="#000000" stroke-width="2" fill="none"></path></g><g transform="translate(1157.1691486347047 34.30941827852297) rotate(0 46.875000000000114 12)"><text x="46.875" y="0" font-family="Cascadia, Segoe UI Emoji" font-size="20px" fill="#000000" text-anchor="middle" style="white-space: pre;" direction="ltr" dominant-baseline="text-before-edge">log-main</text></g><g stroke-linecap="round" transform="translate(1084.996875590369 699.2837109267144) rotate(0 142.8567276532052 36.30941827852297)"><path d="M18.15 0 M18.15 0 C79.7 1.35, 144.03 0.33, 267.56 0 M18.15 0 C73.21 -2.52, 128.86 -1.81, 267.56 0 M267.56 0 C281.23 0.43, 284.01 6.49, 285.71 18.15 M267.56 0 C277.88 -0.57, 287.87 7.44, 285.71 18.15 M285.71 18.15 C287.59 27.26, 287.56 38.7, 285.71 54.46 M285.71 18.15 C285.72 27.86, 284.86 36.26, 285.71 54.46 M285.71 54.46 C284.39 66.11, 278.66 71.31, 267.56 72.62 M285.71 54.46 C283.56 66.75, 279 71.92, 267.56 72.62 M267.56 72.62 C179.14 73.47, 92.18 75.33, 18.15 72.62 M267.56 72.62 C171.18 72.74, 74.43 73.19, 18.15 72.62 M18.15 72.62 C4.87 72.68, 1.89 68.48, 0 54.46 M18.15 72.62 C6.81 73.73, 2 67.46, 0 54.46 M0 54.46 C-0.81 39.07, -1.68 25.22, 0 18.15 M0 54.46 C-1.16 44.46, -0.34 34.5, 0 18.15 M0 18.15 C-1.62 7.38, 4.25 -1.03, 18.15 0 M0 18.15 C1.55 4.99, 7.76 1.78, 18.15 0" stroke="#000000" stroke-width="2" fill="none"></path></g><g transform="translate(1163.400478243574 723.5931292052373) rotate(0 64.453125 12)"><text x="64.453125" y="0" font-family="Cascadia, Segoe UI Emoji" font-size="20px" fill="#000000" text-anchor="middle" style="white-space: pre;" direction="ltr" dominant-baseline="text-before-edge">grades-main</text></g><g mask="url(#mask-PpH7XNANctwBxXwlX3In5)" stroke-linecap="round"><g transform="translate(659.8076380916395 354.98848963370904) rotate(0 196.84522839546275 -141.66805901683853)"><path d="M0.4 0.8 C66.13 -46.23, 328.71 -234.86, 394.54 -282.33 M-0.85 0.18 C64.74 -47.2, 327.74 -236.89, 393.76 -284.14" stroke="#000000" stroke-width="2" fill="none"></path></g><g transform="translate(659.8076380916395 354.98848963370904) rotate(0 196.84522839546275 -141.66805901683853)"><path d="M378.19 -258.84 C383.16 -265.19, 385.61 -274.41, 394.79 -285.5 M377.8 -258.76 C382.28 -267.84, 388.5 -276.31, 394.06 -283.32" stroke="#000000" stroke-width="2" fill="none"></path></g><g transform="translate(659.8076380916395 354.98848963370904) rotate(0 196.84522839546275 -141.66805901683853)"><path d="M366.21 -275.5 C374.91 -276.69, 381.09 -280.7, 394.79 -285.5 M365.82 -275.43 C374.39 -278.69, 384.71 -281.44, 394.06 -283.32" stroke="#000000" stroke-width="2" fill="none"></path></g></g><mask id="mask-PpH7XNANctwBxXwlX3In5"><rect x="0" y="0" fill="#fff" width="1154.0445845988397" height="737.9169668638832"></rect><rect x="836.9261113452394" y="201.52425101862195" fill="#000" width="40" height="24" opacity="1"></rect></mask><g transform="translate(836.9261113452396 201.52425101862195) rotate(0 19.726755141862668 11.796179598248557)"><text x="20" y="0" font-family="Cascadia, Segoe UI Emoji" font-size="20px" fill="#000000" text-anchor="middle" style="white-space: pre;" direction="ltr" dominant-baseline="text-before-edge">调用</text></g><g mask="url(#mask-kPXEywg9OHLnmh5WTtzmi)" stroke-linecap="round"><g transform="translate(629.8924627822871 413.97501925508266) rotate(0 227.70916146253512 141.07192025048397)"><path d="M0.32 0.05 C76.27 46.92, 380.41 234.86, 456.38 282.04 M-0.97 -0.97 C74.84 45.96, 379.81 235.52, 455.93 283.12" stroke="#000000" stroke-width="2" fill="none"></path></g><g transform="translate(629.8924627822871 413.97501925508266) rotate(0 227.70916146253512 141.07192025048397)"><path d="M426.66 278.5 C435.75 280.27, 448.22 280.87, 456.14 285.01 M426.26 277.8 C436.67 280.03, 448.39 281.81, 456.03 283.64" stroke="#000000" stroke-width="2" fill="none"></path></g><g transform="translate(629.8924627822871 413.97501925508266) rotate(0 227.70916146253512 141.07192025048397)"><path d="M437.51 261.08 C442.8 269.18, 451.35 276.06, 456.14 285.01 M437.11 260.38 C443.46 269.13, 451.09 277.48, 456.03 283.64" stroke="#000000" stroke-width="2" fill="none"></path></g></g><mask id="mask-kPXEywg9OHLnmh5WTtzmi"><rect x="0" y="0" fill="#fff" width="1185.32736702405" height="796.9027654658277"></rect><rect x="837.6099149031684" y="543.4388923604552" fill="#000" width="40" height="24" opacity="1"></rect></mask><g transform="translate(837.6099149031688 543.4388923604552) rotate(0 19.991709341653632 11.60804714511147)"><text x="20" y="0" font-family="Cascadia, Segoe UI Emoji" font-size="20px" fill="#000000" text-anchor="middle" style="white-space: pre;" direction="ltr" dominant-baseline="text-before-edge">调用</text></g><g mask="url(#mask-qumqckQ1EG5qit0diRAvs)" stroke-linecap="round"><g transform="translate(1253.175465472806 697.4980018310494) rotate(0 -2.9737219553703653 -304.4405724471283)"><path d="M0.01 0.51 C-1.03 -101.2, -4.29 -507.6, -5.12 -609.39 M-1.45 -0.27 C-2.72 -101.84, -5.27 -506.28, -5.96 -607.79" stroke="#000000" stroke-width="2" fill="none"></path></g><g transform="translate(1253.175465472806 697.4980018310494) rotate(0 -2.9737219553703653 -304.4405724471283)"><path d="M5.34 -579.31 C0.4 -590.14, -5.09 -602.86, -4.46 -607.85 M3.74 -579.47 C1.16 -588.72, -1.78 -598.87, -5.62 -608.59" stroke="#000000" stroke-width="2" fill="none"></path></g><g transform="translate(1253.175465472806 697.4980018310494) rotate(0 -2.9737219553703653 -304.4405724471283)"><path d="M-15.18 -579.17 C-12.06 -590.06, -9.49 -602.83, -4.46 -607.85 M-16.78 -579.33 C-12.37 -588.57, -8.31 -598.77, -5.62 -608.59" stroke="#000000" stroke-width="2" fill="none"></path></g></g><mask id="mask-qumqckQ1EG5qit0diRAvs"><rect x="0" y="0" fill="#fff" width="1358.5065957986994" height="1407.0200398180575"></rect><rect x="1230.5099003098594" y="380.73698283754527" fill="#000" width="40" height="24" opacity="1"></rect></mask><g transform="translate(1230.5099003098594 380.73698283754527) rotate(0 19.691843207576312 12.320446546375763)"><text x="20" y="0" font-family="Cascadia, Segoe UI Emoji" font-size="20px" fill="#000000" text-anchor="middle" style="white-space: pre;" direction="ltr" dominant-baseline="text-before-edge">调用</text></g><g mask="url(#mask-pCUPmtVr45hNUqVaBF3XW)" stroke-linecap="round"><g transform="translate(1204.7120418767495 693.9289388565227) rotate(0 -102.76978366709557 -136.26575602131254)"><path d="M-0.67 0.1 C-34.85 -45.4, -171.73 -227.27, -205.69 -272.63 M1.18 -0.89 C-33.13 -46.23, -172.43 -225.57, -206.72 -271.1" stroke="#c92a2a" stroke-width="2" fill="none"></path></g><g transform="translate(1204.7120418767495 693.9289388565227) rotate(0 -102.76978366709557 -136.26575602131254)"><path d="M-181.27 -255.24 C-187.9 -257.31, -193.34 -261.51, -204.73 -269.49 M-180.64 -254.64 C-187.3 -259.02, -193.02 -261.27, -205.98 -271.86" stroke="#c92a2a" stroke-width="2" fill="none"></path></g><g transform="translate(1204.7120418767495 693.9289388565227) rotate(0 -102.76978366709557 -136.26575602131254)"><path d="M-197.56 -242.76 C-200.11 -247.9, -201.42 -255.26, -204.73 -269.49 M-196.93 -242.15 C-200.03 -249.2, -202.25 -254.13, -205.98 -271.86" stroke="#c92a2a" stroke-width="2" fill="none"></path></g></g><mask id="mask-pCUPmtVr45hNUqVaBF3XW"><rect x="0" y="0" fill="#fff" width="1510.230695438451" height="1066.5519045616625"></rect><rect x="1081.9527150958988" y="545.6174560039528" fill="#000" width="40" height="24" opacity="1"></rect></mask><g transform="translate(1081.9527150958988 545.6174560039526) rotate(0 19.989543113755076 12.045726831257412)"><text x="20" y="0" font-family="Cascadia, Segoe UI Emoji" font-size="20px" fill="#c92a2a" text-anchor="middle" style="white-space: pre;" direction="ltr" dominant-baseline="text-before-edge">注册</text></g><g mask="url(#mask-qiEVigbygac9vWQJwbzdD)" stroke-linecap="round"><g transform="translate(1204.4332774836712 92.09924678613885) rotate(0 -113.78464041706059 118.96806519422768)"><path d="M-0.47 -0.43 C-38.57 39.43, -191.01 198.62, -229.05 238.51 M1.48 -1.7 C-36.2 38.36, -188.28 199.35, -226.82 239.64" stroke="#c92a2a" stroke-width="2" fill="none"></path></g><g transform="translate(1204.4332774836712 92.09924678613885) rotate(0 -113.78464041706059 118.96806519422768)"><path d="M-215.56 210.6 C-219.41 218.28, -221.88 225.41, -227.53 238.39 M-214.68 212.62 C-218.02 217.61, -220.53 222.66, -226.01 239.31" stroke="#c92a2a" stroke-width="2" fill="none"></path></g><g transform="translate(1204.4332774836712 92.09924678613885) rotate(0 -113.78464041706059 118.96806519422768)"><path d="M-200.68 224.73 C-208.33 228.67, -214.68 232.12, -227.53 238.39 M-199.8 226.75 C-206.12 228.76, -211.66 230.93, -226.01 239.31" stroke="#c92a2a" stroke-width="2" fill="none"></path></g></g><mask id="mask-qiEVigbygac9vWQJwbzdD"><rect x="0" y="0" fill="#fff" width="1532.5709129237969" height="431.37955517165057"></rect><rect x="1070.3644597636085" y="199.7394009788947" fill="#000" width="40" height="24" opacity="1"></rect></mask><g transform="translate(1070.3644597636085 199.73940097889476) rotate(0 20.28417730300214 11.327911001471819)"><text x="20" y="0" font-family="Cascadia, Segoe UI Emoji" font-size="20px" fill="#c92a2a" text-anchor="middle" style="white-space: pre;" direction="ltr" dominant-baseline="text-before-edge">注册</text></g></svg>